M48
METRIC
T1C0.500
T2C0.800
T3C0.900
T4C1.100
T5C1.300
%
G90
G05
T1
X101.0Y-71.0
X101.0Y-76.0
T2
X45.19Y-61.5
X49.19Y-56.5
X52.81Y-61.5
X56.81Y-56.5
X77.0Y-48.5
X79.38Y-54.5
X84.62Y-48.5
X87.0Y-54.5
T3
X48.5Y-70.5
X48.5Y-73.04
X90.5Y-71.0
X90.5Y-73.54
T4
X69.0Y-45.0
X69.0Y-47.54
X69.0Y-50.08
X91.0Y-56.42
X91.0Y-66.58
T5
X57.5Y-50.0
X62.5Y-50.0
X101.0Y-60.5
X101.0Y-65.5
M30
