%TF.GenerationSoftware,KiCad,Pcbnew,9.0.7*%
%TF.CreationDate,2026-03-13T00:17:15+02:00*%
%TF.ProjectId,Hadron_Collider,48616472-6f6e-45f4-936f-6c6c69646572,rev?*%
%TF.SameCoordinates,Original*%
%TF.FileFunction,Copper,L1,Top*%
%TF.FilePolarity,Positive*%
%FSLAX46Y46*%
G04 Gerber Fmt 4.6, Leading zero omitted, Abs format (unit mm)*
G04 Created by KiCad (PCBNEW 9.0.7) date 2026-03-13 00:17:15*
%MOMM*%
%LPD*%
G01*
G04 APERTURE LIST*
G04 Aperture macros list*
%AMRoundRect*
0 Rectangle with rounded corners*
0 $1 Rounding radius*
0 $2 $3 $4 $5 $6 $7 $8 $9 X,Y pos of 4 corners*
0 Add a 4 corners polygon primitive as box body*
4,1,4,$2,$3,$4,$5,$6,$7,$8,$9,$2,$3,0*
0 Add four circle primitives for the rounded corners*
1,1,$1+$1,$2,$3*
1,1,$1+$1,$4,$5*
1,1,$1+$1,$6,$7*
1,1,$1+$1,$8,$9*
0 Add four rect primitives between the rounded corners*
20,1,$1+$1,$2,$3,$4,$5,0*
20,1,$1+$1,$4,$5,$6,$7,0*
20,1,$1+$1,$6,$7,$8,$9,0*
20,1,$1+$1,$8,$9,$2,$3,0*%
G04 Aperture macros list end*
%TA.AperFunction,ComponentPad*%
%ADD10O,2.000000X1.905000*%
%TD*%
%TA.AperFunction,ComponentPad*%
%ADD11R,2.000000X1.905000*%
%TD*%
%TA.AperFunction,ComponentPad*%
%ADD12C,2.800000*%
%TD*%
%TA.AperFunction,ComponentPad*%
%ADD13RoundRect,0.250001X-1.149999X1.149999X-1.149999X-1.149999X1.149999X-1.149999X1.149999X1.149999X0*%
%TD*%
%TA.AperFunction,ComponentPad*%
%ADD14C,1.800000*%
%TD*%
%TA.AperFunction,ComponentPad*%
%ADD15R,1.800000X1.800000*%
%TD*%
%TA.AperFunction,ComponentPad*%
%ADD16C,2.200000*%
%TD*%
%TA.AperFunction,ComponentPad*%
%ADD17RoundRect,0.249999X-0.850001X0.850001X-0.850001X-0.850001X0.850001X-0.850001X0.850001X0.850001X0*%
%TD*%
%TA.AperFunction,ComponentPad*%
%ADD18RoundRect,0.250001X-1.149999X-1.149999X1.149999X-1.149999X1.149999X1.149999X-1.149999X1.149999X0*%
%TD*%
%TA.AperFunction,ComponentPad*%
%ADD19C,1.600000*%
%TD*%
%TA.AperFunction,ComponentPad*%
%ADD20C,1.000000*%
%TD*%
%TA.AperFunction,ComponentPad*%
%ADD21R,1.000000X1.000000*%
%TD*%
%TA.AperFunction,Conductor*%
%ADD22C,0.200000*%
%TD*%
G04 APERTURE END LIST*
D10*
%TO.P,Q1,3,S*%
%TO.N,Net-(BT1--)*%
X69000000Y-50080000D03*
%TO.P,Q1,2,D*%
%TO.N,Net-(D2-K)*%
X69000000Y-47540000D03*
D11*
%TO.P,Q1,1,G*%
%TO.N,Net-(Q1-G)*%
X69000000Y-45000000D03*
%TD*%
D12*
%TO.P,BT1,2,-*%
%TO.N,Net-(BT1--)*%
X101000000Y-65500000D03*
D13*
%TO.P,BT1,1,+*%
%TO.N,Net-(BT1-+)*%
X101000000Y-60500000D03*
%TD*%
D14*
%TO.P,D1,2,A*%
%TO.N,Net-(D1-A)*%
X48500000Y-70500000D03*
D15*
%TO.P,D1,1,K*%
%TO.N,Net-(BT1--)*%
X48500000Y-73040000D03*
%TD*%
D16*
%TO.P,D2,2,A*%
%TO.N,Net-(BT1--)*%
X91000000Y-66580000D03*
D17*
%TO.P,D2,1,K*%
%TO.N,Net-(D2-K)*%
X91000000Y-56420000D03*
%TD*%
D12*
%TO.P,L1,2,2*%
%TO.N,Net-(D2-K)*%
X62500000Y-50000000D03*
D18*
%TO.P,L1,1,1*%
%TO.N,Net-(BT1-+)*%
X57500000Y-50000000D03*
%TD*%
D19*
%TO.P,R2,2*%
%TO.N,Net-(Q2-C)*%
X84620000Y-48500000D03*
%TO.P,R2,1*%
%TO.N,Net-(Q1-G)*%
X77000000Y-48500000D03*
%TD*%
%TO.P,R1,2*%
%TO.N,Net-(BT1-+)*%
X87000000Y-54500000D03*
%TO.P,R1,1*%
%TO.N,Net-(Q2-C)*%
X79380000Y-54500000D03*
%TD*%
%TO.P,R4,2*%
%TO.N,Net-(D1-A)*%
X52810000Y-61500000D03*
%TO.P,R4,1*%
%TO.N,Net-(BT1-+)*%
X45190000Y-61500000D03*
%TD*%
%TO.P,R3,2*%
%TO.N,Net-(BT1--)*%
X56810000Y-56500000D03*
%TO.P,R3,1*%
%TO.N,Net-(Q1-G)*%
X49190000Y-56500000D03*
%TD*%
D20*
%TO.P,TP1,1,1*%
%TO.N,Net-(Q2-C)*%
X101000000Y-76000000D03*
%TD*%
D21*
%TO.P,TP2,1,1*%
%TO.N,Net-(BT1--)*%
X101000000Y-71000000D03*
%TD*%
D15*
%TO.P,Q2,1,C*%
%TO.N,Net-(Q2-C)*%
X90500000Y-73540000D03*
D14*
%TO.P,Q2,2,E*%
%TO.N,Net-(BT1--)*%
X90500000Y-71000000D03*
%TD*%
D22*
%TO.N,Net-(BT1--)*%
X58233877Y-55076123D02*
X56810000Y-56500000D01*
X64003877Y-55076123D02*
X58233877Y-55076123D01*
X69000000Y-50080000D02*
X64003877Y-55076123D01*
%TO.N,Net-(BT1-+)*%
X60100240Y-43746500D02*
X45190000Y-58656740D01*
X71153500Y-44599000D02*
X70301000Y-43746500D01*
X70301000Y-43746500D02*
X60100240Y-43746500D01*
X45190000Y-58656740D02*
X45190000Y-61500000D01*
X83099000Y-44599000D02*
X71153500Y-44599000D01*
X87000000Y-48500000D02*
X83099000Y-44599000D01*
X87000000Y-54500000D02*
X87000000Y-48500000D01*
%TO.N,Net-(BT1--)*%
X73970050Y-50080000D02*
X69000000Y-50080000D01*
X75500000Y-51609950D02*
X73970050Y-50080000D01*
X75500000Y-52177050D02*
X75500000Y-51609950D01*
X83601000Y-60278050D02*
X75500000Y-52177050D01*
X83601000Y-69043000D02*
X83601000Y-60278050D01*
X91359000Y-76801000D02*
X83601000Y-69043000D01*
X101331786Y-76801000D02*
X91359000Y-76801000D01*
X101801000Y-76331786D02*
X101331786Y-76801000D01*
X101801000Y-71801000D02*
X101801000Y-76331786D01*
X101000000Y-71000000D02*
X101801000Y-71801000D01*
%TO.N,Net-(Q2-C)*%
X88000000Y-63120000D02*
X79380000Y-54500000D01*
X88000000Y-71040000D02*
X88000000Y-63120000D01*
X90500000Y-73540000D02*
X88000000Y-71040000D01*
X98540000Y-73540000D02*
X101000000Y-76000000D01*
X90500000Y-73540000D02*
X98540000Y-73540000D01*
%TO.N,Net-(BT1--)*%
X91000000Y-70500000D02*
X90500000Y-71000000D01*
X91000000Y-66580000D02*
X91000000Y-70500000D01*
X101000000Y-65500000D02*
X101000000Y-71000000D01*
X99920000Y-66580000D02*
X101000000Y-65500000D01*
X91000000Y-66580000D02*
X99920000Y-66580000D01*
%TO.N,Net-(D2-K)*%
X85899000Y-54956050D02*
X87362950Y-56420000D01*
X87362950Y-56420000D02*
X91000000Y-56420000D01*
X85899000Y-48221950D02*
X85899000Y-54956050D01*
X84163950Y-47399000D02*
X85076050Y-47399000D01*
X71116450Y-49656450D02*
X81906500Y-49656450D01*
X81906500Y-49656450D02*
X84163950Y-47399000D01*
X69000000Y-47540000D02*
X71116450Y-49656450D01*
X85076050Y-47399000D02*
X85899000Y-48221950D01*
X66540000Y-50000000D02*
X69000000Y-47540000D01*
X62500000Y-50000000D02*
X66540000Y-50000000D01*
%TO.N,Net-(BT1-+)*%
X57500000Y-50321370D02*
X57500000Y-50000000D01*
X46321370Y-61500000D02*
X57500000Y-50321370D01*
X45190000Y-61500000D02*
X46321370Y-61500000D01*
%TO.N,Net-(D1-A)*%
X48500000Y-65810000D02*
X52810000Y-61500000D01*
X48500000Y-70500000D02*
X48500000Y-65810000D01*
%TO.N,Net-(BT1--)*%
X49701000Y-69215759D02*
X49701000Y-71839000D01*
X56810000Y-62106759D02*
X49701000Y-69215759D01*
X56810000Y-56500000D02*
X56810000Y-62106759D01*
X49701000Y-71839000D02*
X48500000Y-73040000D01*
%TO.N,Net-(Q1-G)*%
X49190000Y-55223840D02*
X49190000Y-56500000D01*
X59413840Y-45000000D02*
X49190000Y-55223840D01*
X69000000Y-45000000D02*
X59413840Y-45000000D01*
X73000000Y-45000000D02*
X69000000Y-45000000D01*
X77000000Y-48500000D02*
X76500000Y-48500000D01*
X76500000Y-48500000D02*
X73000000Y-45000000D01*
%TO.N,Net-(Q2-C)*%
X84620000Y-49260000D02*
X84620000Y-48500000D01*
X79380000Y-54500000D02*
X84620000Y-49260000D01*
%TO.N,Net-(BT1-+)*%
X92000000Y-54500000D02*
X87000000Y-54500000D01*
X101000000Y-60500000D02*
X98000000Y-60500000D01*
X98000000Y-60500000D02*
X92000000Y-54500000D01*
%TD*%
M02*
